<?xml version="1.0" encoding="utf-8"?>
<!-- Generator: Adobe Illustrator 18.0.0, SVG Export Plug-In . SVG Version: 6.00 Build 0)  -->
<!DOCTYPE svg PUBLIC "-//W3C//DTD SVG 1.1//EN" "http://www.w3.org/Graphics/SVG/1.1/DTD/svg11.dtd">
<svg version="1.1" id="Слой_1" xmlns="http://www.w3.org/2000/svg" xmlns:xlink="http://www.w3.org/1999/xlink" x="0px" y="0px"
	 width="460px" height="460px" viewBox="271 -219.5 460 460" enable-background="new 271 -219.5 460 460" xml:space="preserve">
<g>
	<path fill="#8AC48D" d="M501-219.5c-127.025,0-230,102.974-230,230s102.975,230,230,230s230-102.975,230-230
		S628.026-219.5,501-219.5z M657.096,136.228c-5.503,7.768-16.27,9.603-24.042,4.091l-59.096-41.91
		c-5.763-4.089-8.234-11.057-6.889-17.57l-11.199-7.942c-40.14,50.393-113.379,61.265-166.572,23.542
		c-55.077-39.056-68.11-115.645-29.052-170.72c39.061-55.083,115.649-68.116,170.724-29.052
		c7.371,5.227,13.985,11.128,19.826,17.557l21.901-21.901l24.748,24.749L570.647-56.13c17.468,36.802,16.104,81.339-6.798,117.775
		l11.2,7.949c5.691-3.42,13.098-3.396,18.863,0.689l59.091,41.903C660.779,117.697,662.61,128.463,657.096,136.228z"/>
	<path fill="#8AC48D" d="M460.774,53.743L389.781-17.25l24.749-24.749l46.245,46.245l75.368-75.368
		c-5.014-5.63-10.734-10.784-17.14-15.326c-45.77-32.458-109.416-21.635-141.873,24.143
		c-32.458,45.77-21.628,109.411,24.142,141.869c45.77,32.458,109.415,21.631,141.873-24.139
		c20.515-28.929,23.73-64.996,11.767-95.819L460.774,53.743z"/>
	<path display="none" fill="#FFFFFF" d="M597.445-82.928l-24.748-24.749l-21.901,21.901c8.155,8.976,14.792,18.986,19.852,29.646
		L597.445-82.928z"/>
	<path display="none" fill="#FFFFFF" d="M414.53-41.999L389.781-17.25l70.994,70.993l94.138-94.138
		c-4.315-11.119-10.601-21.556-18.77-30.728L460.774,4.246L414.53-41.999z"/>
	<path fill="#FFFFFF" d="M653.004,112.186l-59.091-41.903c-5.765-4.085-13.172-4.109-18.863-0.689l-11.2-7.949
		c22.901-36.436,24.266-80.973,6.798-117.775c-5.059-10.659-11.697-20.669-19.852-29.646c-5.841-6.429-12.455-12.33-19.826-17.557
		c-55.075-39.064-131.663-26.031-170.724,29.052c-39.058,55.076-26.025,131.664,29.052,170.72
		c53.192,37.723,126.432,26.851,166.572-23.542l11.199,7.942c-1.345,6.513,1.125,13.481,6.889,17.57l59.096,41.91
		c7.772,5.512,18.539,3.676,24.042-4.091C662.61,128.463,660.779,117.697,653.004,112.186z M543.146,55.423
		c-32.458,45.77-96.103,56.597-141.873,24.139c-45.77-32.458-56.6-96.099-24.142-141.869
		c32.457-45.777,96.102-56.601,141.873-24.143c6.406,4.542,12.126,9.697,17.14,15.326c8.168,9.172,14.454,19.609,18.77,30.728
		C566.876-9.573,563.661,26.494,543.146,55.423z"/>
</g>
</svg>
