<?xml version="1.0" encoding="UTF-8" standalone="no"?>
<!-- Generator: Adobe Illustrator 18.0.0, SVG Export Plug-In . SVG Version: 6.00 Build 0)  -->

<svg
   xmlns:dc="http://purl.org/dc/elements/1.1/"
   xmlns:cc="http://creativecommons.org/ns#"
   xmlns:rdf="http://www.w3.org/1999/02/22-rdf-syntax-ns#"
   xmlns:svg="http://www.w3.org/2000/svg"
   xmlns="http://www.w3.org/2000/svg"
   xmlns:sodipodi="http://sodipodi.sourceforge.net/DTD/sodipodi-0.dtd"
   xmlns:inkscape="http://www.inkscape.org/namespaces/inkscape"
   version="1.1"
   id="Слой_1"
   x="0px"
   y="0px"
   width="100.00005"
   height="100.00005"
   viewBox="271 -219.5 100.00004 100.00005"
   enable-background="new 271 -219.5 460 460"
   xml:space="preserve"
   sodipodi:docname="qualityNew.svg"
   inkscape:version="0.92.1 r15371"><metadata
   id="metadata3697"><rdf:RDF><cc:Work
       rdf:about=""><dc:format>image/svg+xml</dc:format><dc:type
         rdf:resource="http://purl.org/dc/dcmitype/StillImage" /><dc:title /></cc:Work></rdf:RDF></metadata><defs
   id="defs3695" /><sodipodi:namedview
   pagecolor="#ffffff"
   bordercolor="#666666"
   borderopacity="1"
   objecttolerance="10"
   gridtolerance="10"
   guidetolerance="10"
   inkscape:pageopacity="0"
   inkscape:pageshadow="2"
   inkscape:window-width="1366"
   inkscape:window-height="716"
   id="namedview3693"
   showgrid="false"
   inkscape:zoom="1.1586957"
   inkscape:cx="229.1381"
   inkscape:cy="-60.845174"
   inkscape:window-x="-8"
   inkscape:window-y="-8"
   inkscape:window-maximized="1"
   inkscape:current-layer="g3690" />
<g
   id="g3690"
   transform="matrix(0.21739141,0,0,0.21739141,212.08693,-171.78259)"
   style="stroke-width:4.60000992">
	<path
   d="m 501,-219.5 c -127.025,0 -230,102.974 -230,230 0,127.026 102.975,230 230,230 127.025,0 230,-102.975 230,-230 0,-127.025 -102.974,-230 -230,-230 z m 156.096,355.728 c -5.503,7.768 -16.27,9.603 -24.042,4.091 l -59.096,-41.91 c -5.763,-4.089 -8.234,-11.057 -6.889,-17.57 L 555.87,72.897 c -40.14,50.393 -113.379,61.265 -166.572,23.542 -55.077,-39.056 -68.11,-115.645 -29.052,-170.72 39.061,-55.083 115.649,-68.116 170.724,-29.052 7.371,5.227 13.985,11.128 19.826,17.557 l 21.901,-21.901 24.748,24.749 -26.798,26.798 c 17.468,36.802 16.104,81.339 -6.798,117.775 l 11.2,7.949 c 5.691,-3.42 13.098,-3.396 18.863,0.689 l 59.091,41.903 c 7.776,5.511 9.607,16.277 4.093,24.042 z"
   id="path3680"
   inkscape:connector-curvature="0"
   style="fill:#ffffff;fill-opacity:0.89411765;stroke-width:4.63805532" />
	<path
   d="m 460.774,53.743 -70.993,-70.993 24.749,-24.749 46.245,46.245 75.368,-75.368 c -5.014,-5.63 -10.734,-10.784 -17.14,-15.326 -45.77,-32.458 -109.416,-21.635 -141.873,24.143 -32.458,45.77 -21.628,109.411 24.142,141.869 45.77,32.458 109.415,21.631 141.873,-24.139 20.515,-28.929 23.73,-64.996 11.767,-95.819 z"
   id="path3682"
   inkscape:connector-curvature="0"
   style="fill:#ffffff;fill-opacity:0.89411765;stroke-width:4.63805532" />
	<path
   display="none"
   d="m 597.445,-82.928 -24.748,-24.749 -21.901,21.901 c 8.155,8.976 14.792,18.986 19.852,29.646 z"
   id="path3684"
   inkscape:connector-curvature="0"
   style="display:none;fill:#ffffff;stroke-width:4.63805532" />
	<path
   display="none"
   d="m 414.53,-41.999 -24.749,24.749 70.994,70.993 94.138,-94.138 c -4.315,-11.119 -10.601,-21.556 -18.77,-30.728 L 460.774,4.246 Z"
   id="path3686"
   inkscape:connector-curvature="0"
   style="display:none;fill:#ffffff;stroke-width:4.63805532" />
	<path
   d="M 653.004,112.186 593.913,70.283 c -5.765,-4.085 -13.172,-4.109 -18.863,-0.689 l -11.2,-7.949 c 22.901,-36.436 24.266,-80.973 6.798,-117.775 -5.059,-10.659 -11.697,-20.669 -19.852,-29.646 -5.841,-6.429 -12.455,-12.33 -19.826,-17.557 -55.075,-39.064 -131.663,-26.031 -170.724,29.052 -39.058,55.076 -26.025,131.664 29.052,170.72 53.192,37.723 126.432,26.851 166.572,-23.542 l 11.199,7.942 c -1.345,6.513 1.125,13.481 6.889,17.57 l 59.096,41.91 c 7.772,5.512 18.539,3.676 24.042,-4.091 5.514,-7.765 3.683,-18.531 -4.092,-24.042 z M 543.146,55.423 c -32.458,45.77 -96.103,56.597 -141.873,24.139 -45.77,-32.458 -56.6,-96.099 -24.142,-141.869 32.457,-45.777 96.102,-56.601 141.873,-24.143 6.406,4.542 12.126,9.697 17.14,15.326 8.168,9.172 14.454,19.609 18.77,30.728 11.962,30.823 8.747,66.89 -11.768,95.819 z"
   id="path3688"
   inkscape:connector-curvature="0"
   style="fill:#ffffff;fill-opacity:0;stroke-width:4.63805532" />
</g>
</svg>