<?xml version="1.0" encoding="UTF-8" standalone="no"?>
<!-- Generator: Adobe Illustrator 16.0.0, SVG Export Plug-In . SVG Version: 6.00 Build 0)  -->

<svg
   xmlns:dc="http://purl.org/dc/elements/1.1/"
   xmlns:cc="http://creativecommons.org/ns#"
   xmlns:rdf="http://www.w3.org/1999/02/22-rdf-syntax-ns#"
   xmlns:svg="http://www.w3.org/2000/svg"
   xmlns="http://www.w3.org/2000/svg"
   xmlns:sodipodi="http://sodipodi.sourceforge.net/DTD/sodipodi-0.dtd"
   xmlns:inkscape="http://www.inkscape.org/namespaces/inkscape"
   version="1.1"
   x="0px"
   y="0px"
   width="100"
   height="118.15376"
   viewBox="0 0 100 118.15375"
   enable-background="new 0 0 612 612"
   xml:space="preserve"
   id="svg3757"
   sodipodi:docname="intimeNew.svg"
   inkscape:version="0.92.1 r15371"><metadata
   id="metadata3763"><rdf:RDF><cc:Work
       rdf:about=""><dc:format>image/svg+xml</dc:format><dc:type
         rdf:resource="http://purl.org/dc/dcmitype/StillImage" /><dc:title></dc:title></cc:Work></rdf:RDF></metadata><defs
   id="defs3761" /><sodipodi:namedview
   pagecolor="#ffffff"
   bordercolor="#666666"
   borderopacity="1"
   objecttolerance="10"
   gridtolerance="10"
   guidetolerance="10"
   inkscape:pageopacity="0"
   inkscape:pageshadow="2"
   inkscape:window-width="1366"
   inkscape:window-height="716"
   id="namedview3759"
   showgrid="false"
   inkscape:zoom="1.5424837"
   inkscape:cx="50.010561"
   inkscape:cy="86.836016"
   inkscape:window-x="-8"
   inkscape:window-y="-8"
   inkscape:window-maximized="1"
   inkscape:current-layer="svg3757" />
<g
   id="Laag_3_1_"
   transform="translate(-150.79053,-400.03922)">
	<rect
   x="0"
   y="0"
   width="612.28302"
   height="612"
   id="rect3690"
   style="fill:none" />
</g>
<g
   id="Laag_1"
   transform="matrix(0.19515611,0,0,0.19515611,-9.1843809,-0.81419129)"
   style="fill:#483737;fill-opacity:0.9254902;stroke-width:5.12410307;opacity:1">
	<g
   id="Capa_1"
   display="none"
   style="display:none;fill:#483737;fill-opacity:0.9254902;stroke-width:5.12410307">
		<g
   display="inline"
   id="g3695"
   style="display:inline;fill:#483737;fill-opacity:0.9254902;stroke-width:5.12410307">
			<path
   d="m 201.582,398.486 c 0,-57.43 74.475,-66.617 74.475,-98.255 0,-13.901 -10.761,-22.212 -24.223,-22.212 -18.611,0 -28.715,18.851 -28.715,18.851 l -21.536,-14.354 c 0,0 14.576,-31.857 52.717,-31.857 28.039,0 51.822,17.042 51.822,47.109 0,51.146 -71.331,59.896 -72.007,89.962 h 74.473 v 24.897 H 202.934 c -0.676,-5.152 -1.352,-9.647 -1.352,-14.141 z M 324.809,353.845 393.455,253.34 h 34.322 v 94.221 h 20.641 v 24.021 h -20.641 v 41.048 h -28.496 v -41.046 h -74.473 z m 74.473,-6.284 v -49.337 c 0,-7.854 1.131,-16.604 1.131,-16.604 h -0.457 c 0,0 -3.58,8.513 -7.854,14.576 l -36.789,50.927 v 0.438 z m 140.496,-8.444 -5.543,19.855 C 502.727,471.834 387.758,543.052 274.033,514.825 164.799,487.718 96.911,381.869 113.235,274.032 l 32.914,9.188 c 7.629,2.13 14.703,-4.8 12.73,-12.474 l -35.794,-139.38 c -1.97,-7.672 -11.506,-10.334 -17.166,-4.792 L 3.097,227.26 c -5.66,5.542 -3.197,15.134 4.434,17.264 l 35.826,10.001 c -26.737,145.871 63.254,291.153 210.106,329.396 152.489,39.71 308.024,-54.681 350.396,-206.45 l 5.299,-18.982 c 1.527,-5.474 -1.67,-11.146 -7.145,-12.678 l -49.559,-13.835 c -5.473,-1.532 -11.149,1.669 -12.676,7.141 z m 58.56,-86.849 -51.973,6.752 c -5.637,0.73 -9.607,5.894 -8.879,11.528 l 2.049,15.764 c 0.73,5.636 5.896,9.609 11.529,8.878 l 51.971,-6.752 c 5.637,-0.732 9.609,-5.896 8.879,-11.53 l -2.049,-15.762 c -0.73,-5.635 -5.894,-9.611 -11.527,-8.878 z m -40.009,-98.205 -45.654,25.729 c -4.951,2.789 -6.703,9.064 -3.912,14.019 l 7.803,13.847 c 2.789,4.951 9.064,6.703 14.018,3.913 l 45.654,-25.729 c 4.951,-2.789 6.703,-9.063 3.914,-14.018 l -7.805,-13.847 c -2.792,-4.952 -9.067,-6.704 -14.018,-3.914 z m -73.881,-76.066 -32.693,40.958 c -3.546,4.441 -2.818,10.917 1.623,14.462 l 12.424,9.915 c 4.439,3.547 10.916,2.819 14.461,-1.622 l 32.691,-40.958 c 3.548,-4.44 2.818,-10.917 -1.623,-14.463 l -12.422,-9.916 c -4.44,-3.544 -10.916,-2.817 -14.461,1.624 z M 387.45,35.146 372.481,85.369 c -1.625,5.446 1.475,11.179 6.92,12.802 l 15.23,4.54 c 5.445,1.624 11.18,-1.477 12.803,-6.922 l 14.971,-50.223 c 1.623,-5.446 -1.477,-11.177 -6.922,-12.801 l -15.232,-4.54 C 394.805,26.602 389.073,29.7 387.45,35.146 Z M 281.464,31.752 286.4,83.926 c 0.534,5.658 5.556,9.813 11.213,9.275 l 15.824,-1.497 c 5.657,-0.534 9.811,-5.555 9.273,-11.213 l -4.934,-52.174 c -0.535,-5.658 -5.557,-9.812 -11.213,-9.274 l -15.824,1.495 c -5.657,0.535 -9.81,5.556 -9.275,11.214 z m -99.54,36.556 24.119,46.524 c 2.615,5.045 8.826,7.017 13.872,4.398 l 14.111,-7.313 c 5.045,-2.614 7.015,-8.824 4.396,-13.872 L 214.305,51.521 c -2.614,-5.045 -8.826,-7.017 -13.872,-4.399 l -14.11,7.315 c -5.045,2.615 -7.014,8.825 -4.399,13.871 z"
   id="path3693"
   inkscape:connector-curvature="0"
   style="fill:#483737;fill-opacity:0.9254902;stroke-width:5.12410307" />
		</g>
	</g>
	<g
   id="Laag_2"
   display="none"
   style="display:none;fill:#483737;fill-opacity:0.9254902;stroke-width:5.12410307">
		<g
   display="inline"
   id="g3718"
   style="display:inline;fill:#483737;fill-opacity:0.9254902;stroke-width:5.12410307">
			<g
   id="g3702"
   style="fill:#483737;fill-opacity:0.9254902;stroke-width:5.12410307">
				<path
   d="m 199.77,147.44 h -33.924 c -12.583,0 -22.822,10.239 -22.822,22.824 V 505.34 c 0,12.59 10.239,22.823 22.822,22.823 h 267.197 c 12.584,0 22.822,-10.233 22.822,-22.823 V 170.264 c 0,-12.585 -10.238,-22.824 -22.822,-22.824 H 399.12 c -0.629,-12.55 -10.43,-22.564 -22.415,-22.564 H 354.72 C 351.862,108.52 337.565,96.049 320.408,96.049 H 283.48 c -17.16,0 -31.454,12.471 -34.318,28.827 h -26.979 c -11.986,-0.001 -21.781,10.014 -22.413,22.564 z m 198.344,34.969 H 414.65 V 478.34 H 183.825 V 182.409 h 16.956 c 2.901,9.61 11.395,16.586 21.402,16.586 h 154.523 c 10.011,0.001 18.504,-6.975 21.408,-16.586 z M 439.5,170.264 V 505.34 c 0,3.563 -2.894,6.461 -6.455,6.461 H 165.846 c -3.562,0 -6.457,-2.898 -6.457,-6.461 V 170.264 c 0,-3.559 2.896,-6.457 6.457,-6.457 h 33.86 v 2.234 h -24.065 c -4.52,0 -8.182,3.663 -8.182,8.185 v 312.297 c 0,4.521 3.662,8.182 8.182,8.182 h 247.192 c 4.521,0 8.184,-3.661 8.184,-8.182 V 174.226 c 0,-4.521 -3.662,-8.185 -8.184,-8.185 h -23.652 v -2.234 h 33.862 c 3.563,0 6.457,2.899 6.457,6.457 z M 216.075,148.717 c 0,-4.121 2.74,-7.479 6.108,-7.479 h 34.63 v 0 0 c 4.518,0 8.184,-3.663 8.184,-8.184 v -2.156 c 0,-10.194 8.291,-18.487 18.485,-18.487 h 36.928 c 10.189,0 18.482,8.293 18.482,18.487 v 2.146 c 0,0.005 0,0.005 0,0.005 0,4.525 3.663,8.188 8.184,8.188 v 0 h 29.631 c 3.373,0 6.112,3.358 6.112,7.479 v 6.887 c 0,0.005 -0.005,0.015 -0.005,0.02 0,0.01 0.005,0.016 0.005,0.025 v 19.506 c 0,4.122 -2.739,7.479 -6.112,7.479 H 222.183 c -3.368,0 -6.108,-3.357 -6.108,-7.479 v -19.531 z"
   id="path3698"
   inkscape:connector-curvature="0"
   style="fill:#483737;fill-opacity:0.9254902;stroke-width:5.12410307" />
				<path
   d="m 299.444,173.238 c 13.184,0 23.912,-10.724 23.912,-23.907 0,-13.183 -10.729,-23.912 -23.912,-23.912 -13.183,0 -23.91,10.729 -23.91,23.912 0,13.183 10.726,23.907 23.91,23.907 z m 0,-31.452 c 4.162,0 7.545,3.383 7.545,7.544 0,4.162 -3.383,7.545 -7.545,7.545 -4.159,0 -7.545,-3.383 -7.545,-7.545 0,-4.16 3.386,-7.544 7.545,-7.544 z"
   id="path3700"
   inkscape:connector-curvature="0"
   style="fill:#483737;fill-opacity:0.9254902;stroke-width:5.12410307" />
			</g>
			<path
   d="m 192.061,255.352 c 0,4.517 3.663,8.184 8.184,8.184 H 384.86 c 4.521,0 8.184,-3.667 8.184,-8.184 0,-4.521 -3.663,-8.184 -8.184,-8.184 H 200.244 c -4.521,0.001 -8.183,3.664 -8.183,8.184 z"
   id="path3704"
   inkscape:connector-curvature="0"
   style="fill:#483737;fill-opacity:0.9254902;stroke-width:5.12410307" />
			<path
   d="M 310.909,303.926 H 200.244 c -4.521,0 -8.184,3.663 -8.184,8.184 0,4.518 3.663,8.179 8.184,8.179 h 110.665 c 4.517,0 8.184,-3.661 8.184,-8.179 0,-4.521 -3.667,-8.184 -8.184,-8.184 z"
   id="path3706"
   inkscape:connector-curvature="0"
   style="fill:#483737;fill-opacity:0.9254902;stroke-width:5.12410307" />
			<path
   d="M 310.909,366.15 H 200.244 c -4.521,0 -8.184,3.667 -8.184,8.184 0,4.521 3.663,8.184 8.184,8.184 h 110.665 c 4.517,0 8.184,-3.662 8.184,-8.184 0,-4.517 -3.667,-8.184 -8.184,-8.184 z"
   id="path3708"
   inkscape:connector-curvature="0"
   style="fill:#483737;fill-opacity:0.9254902;stroke-width:5.12410307" />
			<path
   d="M 310.909,428.381 H 200.244 c -4.521,0 -8.184,3.662 -8.184,8.179 0,4.521 3.663,8.184 8.184,8.184 h 110.665 c 4.517,0 8.184,-3.663 8.184,-8.184 0,-4.517 -3.667,-8.179 -8.184,-8.179 z"
   id="path3710"
   inkscape:connector-curvature="0"
   style="fill:#483737;fill-opacity:0.9254902;stroke-width:5.12410307" />
			<path
   d="m 372.006,285.667 -20.758,21.696 -5.719,-7.76 c -2.685,-3.639 -7.804,-4.416 -11.438,-1.731 -3.643,2.676 -4.415,7.801 -1.735,11.438 l 11.485,15.593 c 1.438,1.941 3.653,3.154 6.063,3.31 0.174,0.01 0.354,0.021 0.523,0.021 2.226,0 4.36,-0.908 5.912,-2.525 l 27.489,-28.722 c 3.124,-3.264 3.016,-8.443 -0.254,-11.567 -3.26,-3.126 -8.439,-3.017 -11.568,0.247 z"
   id="path3712"
   inkscape:connector-curvature="0"
   style="fill:#483737;fill-opacity:0.9254902;stroke-width:5.12410307" />
			<path
   d="m 372.006,350.632 -20.758,21.69 -5.719,-7.76 c -2.685,-3.637 -7.804,-4.416 -11.438,-1.73 -3.643,2.681 -4.415,7.805 -1.735,11.438 l 11.485,15.594 c 1.438,1.946 3.653,3.158 6.063,3.309 0.174,0.016 0.354,0.021 0.523,0.021 2.226,0 4.36,-0.908 5.912,-2.523 l 27.489,-28.724 c 3.124,-3.264 3.01,-8.442 -0.254,-11.565 -3.26,-3.128 -8.439,-3.02 -11.568,0.25 z"
   id="path3714"
   inkscape:connector-curvature="0"
   style="fill:#483737;fill-opacity:0.9254902;stroke-width:5.12410307" />
			<path
   d="m 372.006,415.591 -20.758,21.69 -5.719,-7.754 c -2.685,-3.643 -7.804,-4.416 -11.438,-1.736 -3.643,2.686 -4.415,7.805 -1.735,11.441 l 11.485,15.589 c 1.438,1.946 3.653,3.159 6.063,3.313 0.174,0.01 0.354,0.015 0.523,0.015 2.226,0 4.36,-0.903 5.912,-2.523 l 27.489,-28.719 c 3.124,-3.269 3.01,-8.441 -0.254,-11.57 -3.26,-3.124 -8.439,-3.01 -11.568,0.254 z"
   id="path3716"
   inkscape:connector-curvature="0"
   style="fill:#483737;fill-opacity:0.9254902;stroke-width:5.12410307" />
		</g>
	</g>
	<g
   id="Laag_3"
   style="fill:#483737;fill-opacity:0.9254902;stroke-width:5.12410307">
		<path
   d="m 509.075,182.542 c 3.641,1.43 7.535,2.21 11.498,2.21 9.305,0 18.082,-4.078 24.072,-11.186 11.195,-13.269 9.502,-33.162 -3.766,-44.355 l -24.368,-20.554 c -5.664,-4.779 -12.874,-7.412 -20.278,-7.412 -9.302,0 -18.083,4.079 -24.073,11.179 -5.424,6.429 -8.014,14.585 -7.306,22.962 0.417,4.906 1.967,9.537 4.452,13.629 l -6.563,7.772 C 428.129,129.452 386.237,110.945 340.509,104.658 V 86.703 c 13.261,-6.124 22.493,-19.546 22.493,-35.095 v -8.794 c 0,-21.303 -17.331,-38.642 -38.635,-38.642 h -36.503 c -21.302,0 -38.638,17.339 -38.638,38.642 v 8.794 c 0,15.307 8.938,28.561 21.874,34.813 v 18.238 c -49.034,6.74 -93.645,27.54 -129.615,58.205 l -11.682,-13.848 c 2.485,-4.092 4.037,-8.723 4.454,-13.629 0.712,-8.376 -1.883,-16.532 -7.302,-22.961 -5.996,-7.1 -14.768,-11.179 -24.075,-11.179 -7.41,0 -14.609,2.634 -20.281,7.412 l -24.368,20.554 c -13.269,11.193 -14.957,31.086 -3.766,44.355 5.992,7.108 14.768,11.186 24.072,11.186 3.963,0 7.858,-0.778 11.5,-2.209 l 15.307,18.145 c -33.325,42.939 -53.2,96.811 -53.2,155.248 0,139.871 113.792,253.666 253.663,253.666 139.868,0 253.665,-113.794 253.665,-253.666 0,-61.928 -22.314,-118.729 -59.314,-162.816 z m -203.27,403.836 c -127.067,0 -230.444,-103.38 -230.444,-230.442 0,-51.379 16.911,-98.885 45.446,-137.25 1.739,-2.336 3.524,-4.63 5.346,-6.896 7.368,-9.162 15.416,-17.756 24.074,-25.699 2.04,-1.862 4.115,-3.695 6.221,-5.488 31.911,-27.228 71.315,-45.919 114.651,-52.497 2.747,-0.417 5.516,-0.771 8.29,-1.089 2.747,-0.319 5.516,-0.595 8.297,-0.813 5.976,-0.469 12.021,-0.708 18.119,-0.708 6.094,0 12.142,0.24 18.117,0.708 2.788,0.22 5.549,0.494 8.298,0.813 2.774,0.318 5.543,0.672 8.29,1.089 40.05,6.076 76.738,22.494 107.268,46.437 2.174,1.707 4.313,3.454 6.429,5.239 2.11,1.785 4.199,3.597 6.245,5.451 4.672,4.234 9.161,8.667 13.467,13.27 1.911,2.039 3.786,4.1 5.62,6.201 1.84,2.117 3.642,4.27 5.409,6.451 32.059,39.598 51.3,89.979 51.3,144.784 0,127.06 -103.38,230.439 -230.443,230.439 z M 78.533,168.163 c -4.403,0 -8.56,-1.925 -11.395,-5.288 -5.293,-6.281 -4.493,-15.69 1.784,-20.985 L 93.29,121.336 c 2.682,-2.265 6.086,-3.512 9.586,-3.512 4.407,0 8.559,1.933 11.399,5.296 2.563,3.038 3.789,6.896 3.451,10.861 -0.191,2.257 -0.892,4.389 -2.014,6.293 -0.842,1.424 -1.916,2.726 -3.221,3.831 L 88.12,164.658 c -1.294,1.089 -2.764,1.939 -4.327,2.533 -1.67,0.632 -3.45,0.972 -5.26,0.972 z m 39.669,-7.179 11.005,13.049 c -4.532,4.404 -8.903,8.972 -13.098,13.7 L 103.796,173.135 Z M 265.811,42.813 c 0,-12.156 9.897,-22.054 22.054,-22.054 h 36.503 c 12.155,0 22.055,9.896 22.055,22.054 v 8.794 c 0,6.881 -3.173,13.036 -8.127,17.084 -3.796,3.107 -8.645,4.977 -13.927,4.977 h -36.503 c -5.445,0 -10.429,-1.997 -14.281,-5.281 -4.742,-4.049 -7.772,-10.06 -7.772,-16.779 v -8.795 z m 21.876,47.435 c 0.056,0 0.116,0 0.178,0 h 36.058 v 12.681 c -5.983,-0.425 -12.023,-0.659 -18.117,-0.659 -6.097,0 -12.135,0.233 -18.119,0.659 z m 187.733,77.242 5.492,-6.507 14.4,12.15 -6.328,7.513 c -4.362,-4.552 -8.887,-8.935 -13.564,-13.156 z m 56.552,-4.615 c -2.833,3.363 -6.986,5.288 -11.399,5.288 -1.804,0 -3.58,-0.34 -5.252,-0.971 -1.572,-0.594 -3.035,-1.443 -4.333,-2.533 l -24.37,-20.553 c -1.302,-1.104 -2.379,-2.408 -3.221,-3.831 -1.118,-1.897 -1.819,-4.036 -2.02,-6.293 -0.33,-3.964 0.895,-7.823 3.455,-10.861 2.84,-3.363 6.996,-5.296 11.402,-5.296 3.495,0 6.908,1.247 9.584,3.513 l 24.369,20.554 c 6.281,5.294 7.082,14.703 1.785,20.983 z"
   id="path3721"
   inkscape:connector-curvature="0"
   style="fill:#483737;fill-opacity:0.9254902;stroke-width:5.12410307" />
		<path
   d="m 329.729,158.464 c -7.844,-0.941 -15.832,-1.438 -23.924,-1.438 -8.092,0 -16.079,0.496 -23.924,1.438 -98.439,11.858 -174.99,95.891 -174.99,197.473 0,109.682 89.232,198.911 198.914,198.911 109.682,0 198.911,-89.229 198.911,-198.911 10e-4,-101.583 -76.548,-185.615 -174.987,-197.473 z m -23.924,373.167 c -96.879,0 -175.695,-78.82 -175.695,-175.695 0,-96.88 78.815,-175.694 175.695,-175.694 96.874,0 175.695,78.814 175.695,175.694 0.002,96.874 -78.821,175.695 -175.695,175.695 z"
   id="path3723"
   inkscape:connector-curvature="0"
   style="fill:#483737;fill-opacity:0.9254902;stroke-width:5.12410307" />
		<path
   d="m 305.805,244.357 c 6.414,0 11.609,-5.198 11.609,-11.612 v -36.978 c 0,-6.414 -5.196,-11.61 -11.609,-11.61 -6.407,0 -11.605,5.196 -11.605,11.61 v 36.978 c 0,6.415 5.199,11.612 11.605,11.612 z"
   id="path3725"
   inkscape:connector-curvature="0"
   style="fill:#483737;fill-opacity:0.9254902;stroke-width:5.12410307" />
		<path
   d="m 305.805,467.515 c -6.407,0 -11.605,5.196 -11.605,11.609 v 36.979 c 0,6.415 5.199,11.61 11.605,11.61 6.414,0 11.609,-5.196 11.609,-11.61 v -36.979 c 0.002,-6.413 -5.195,-11.609 -11.609,-11.609 z"
   id="path3727"
   inkscape:connector-curvature="0"
   style="fill:#483737;fill-opacity:0.9254902;stroke-width:5.12410307" />
		<path
   d="m 235.775,211.422 c -3.203,-5.558 -10.305,-7.456 -15.855,-4.256 -5.554,3.215 -7.456,10.308 -4.252,15.866 l 18.489,32.022 c 2.152,3.723 6.054,5.805 10.067,5.805 1.968,0 3.965,-0.494 5.792,-1.557 5.559,-3.201 7.455,-10.309 4.255,-15.859 z"
   id="path3729"
   inkscape:connector-curvature="0"
   style="fill:#483737;fill-opacity:0.9254902;stroke-width:5.12410307" />
		<path
   d="m 377.454,456.817 c -3.207,-5.551 -10.301,-7.455 -15.857,-4.255 -5.558,3.208 -7.457,10.308 -4.251,15.858 l 18.489,32.03 c 2.149,3.723 6.058,5.803 10.066,5.803 1.968,0 3.965,-0.5 5.79,-1.556 5.552,-3.207 7.465,-10.308 4.249,-15.858 z"
   id="path3731"
   inkscape:connector-curvature="0"
   style="fill:#483737;fill-opacity:0.9254902;stroke-width:5.12410307" />
		<path
   d="m 204.927,284.289 -32.025,-18.494 c -5.55,-3.2 -12.652,-1.303 -15.859,4.255 -3.206,5.551 -1.303,12.652 4.249,15.859 l 32.026,18.485 c 1.83,1.055 3.822,1.558 5.794,1.558 4.012,0 7.915,-2.082 10.064,-5.806 3.207,-5.551 1.302,-12.65 -4.249,-15.857 z"
   id="path3733"
   inkscape:connector-curvature="0"
   style="fill:#483737;fill-opacity:0.9254902;stroke-width:5.12410307" />
		<path
   d="m 450.321,425.964 -32.024,-18.493 c -5.55,-3.2 -12.659,-1.304 -15.857,4.256 -3.215,5.55 -1.304,12.651 4.246,15.858 l 32.023,18.485 c 1.834,1.055 3.823,1.558 5.798,1.558 4.009,0 7.917,-2.081 10.062,-5.807 3.206,-5.549 1.303,-12.649 -4.248,-15.857 z"
   id="path3735"
   inkscape:connector-curvature="0"
   style="fill:#483737;fill-opacity:0.9254902;stroke-width:5.12410307" />
		<path
   d="m 194.225,355.935 c 0,-6.414 -5.196,-11.61 -11.606,-11.61 h -36.983 c -6.41,0 -11.608,5.198 -11.608,11.61 0,6.408 5.196,11.604 11.608,11.604 h 36.983 c 6.412,0 11.606,-5.195 11.606,-11.604 z"
   id="path3737"
   inkscape:connector-curvature="0"
   style="fill:#483737;fill-opacity:0.9254902;stroke-width:5.12410307" />
		<path
   d="m 465.974,344.325 h -36.986 c -6.406,0 -11.605,5.198 -11.605,11.61 0,6.408 5.199,11.604 11.605,11.604 h 36.986 c 6.415,0 11.611,-5.195 11.611,-11.604 0.001,-6.412 -5.196,-11.61 -11.611,-11.61 z"
   id="path3739"
   inkscape:connector-curvature="0"
   style="fill:#483737;fill-opacity:0.9254902;stroke-width:5.12410307" />
		<path
   d="m 193.316,407.47 -32.026,18.493 c -5.552,3.208 -7.455,10.309 -4.249,15.857 2.149,3.726 6.053,5.807 10.065,5.807 1.968,0 3.964,-0.504 5.794,-1.558 l 32.025,-18.485 c 5.551,-3.207 7.455,-10.309 4.248,-15.858 -3.202,-5.559 -10.307,-7.456 -15.857,-4.256 z"
   id="path3741"
   inkscape:connector-curvature="0"
   style="fill:#483737;fill-opacity:0.9254902;stroke-width:5.12410307" />
		<path
   d="m 402.439,300.146 c 2.146,3.725 6.046,5.805 10.06,5.805 1.968,0 3.966,-0.502 5.798,-1.559 l 32.024,-18.484 c 5.55,-3.206 7.454,-10.309 4.247,-15.859 -3.208,-5.558 -10.301,-7.455 -15.859,-4.255 l -32.023,18.493 c -5.551,3.209 -7.462,10.308 -4.247,15.859 z"
   id="path3743"
   inkscape:connector-curvature="0"
   style="fill:#483737;fill-opacity:0.9254902;stroke-width:5.12410307" />
		<path
   d="m 250.015,452.562 c -5.551,-3.2 -12.651,-1.302 -15.859,4.255 l -18.489,32.022 c -3.204,5.551 -1.302,12.651 4.252,15.858 1.825,1.057 3.823,1.556 5.791,1.556 4.015,0 7.916,-2.08 10.064,-5.803 l 18.496,-32.031 c 3.2,-5.549 1.304,-12.649 -4.255,-15.857 z"
   id="path3745"
   inkscape:connector-curvature="0"
   style="fill:#483737;fill-opacity:0.9254902;stroke-width:5.12410307" />
		<path
   d="m 361.595,259.302 c 1.832,1.063 3.82,1.557 5.796,1.557 4.009,0 7.916,-2.082 10.062,-5.805 l 18.486,-32.022 c 3.216,-5.558 1.304,-12.651 -4.249,-15.866 -5.549,-3.201 -12.643,-1.295 -15.859,4.256 l -18.486,32.022 c -3.206,5.551 -1.307,12.658 4.25,15.858 z"
   id="path3747"
   inkscape:connector-curvature="0"
   style="fill:#483737;fill-opacity:0.9254902;stroke-width:5.12410307" />
		<path
   d="m 415.649,254.057 c -2.746,-2.981 -7.249,-3.541 -10.642,-1.324 l -101.015,66.184 c -19.597,0.948 -35.251,17.189 -35.251,37.02 0,20.433 16.623,37.063 37.063,37.063 19.391,0 35.349,-14.98 36.921,-33.969 l 73.376,-94.263 c 2.488,-3.201 2.295,-7.732 -0.452,-10.711 z M 305.805,369.779 c -7.632,0 -13.842,-6.211 -13.842,-13.843 0,-7.631 6.209,-13.841 13.842,-13.841 7.64,0 13.841,6.21 13.841,13.841 0,7.632 -6.201,13.843 -13.841,13.843 z m 32.363,-31.889 c -3.029,-5.402 -7.368,-9.977 -12.589,-13.284 l 46.785,-30.655 z"
   id="path3749"
   inkscape:connector-curvature="0"
   style="fill:#483737;fill-opacity:0.9254902;stroke-width:5.12410307" />
	</g>
	<g
   id="Laag_4"
   display="none"
   style="display:none;fill:#483737;fill-opacity:0.9254902;stroke-width:5.12410307">
		<path
   display="inline"
   d="m 538.148,265.879 v -40.283 c 0,-0.403 -0.022,-0.799 -0.065,-1.201 -5.031,-48.375 -30.654,-93.02 -72.124,-125.69 -42.307,-33.327 -98.634,-51.677 -158.607,-51.677 -60.864,0 -112.471,16.778 -153.382,49.857 -37.637,30.428 -64.292,73.986 -77.082,125.944 -0.226,0.902 -0.34,1.834 -0.34,2.768 v 40.275 C 36.23,269.766 4.906,296.898 4.906,329.719 v 35.183 c 0,33.28 32.206,60.729 73.328,64.018 3.209,24.729 16.241,46.408 35.057,60.982 v 59.579 c 0,6.391 5.178,11.571 11.57,11.571 6.364,0 11.528,-5.145 11.563,-11.501 0,-0.022 0,-0.042 0,-0.07 v -46.493 c 10.32,4.007 21.518,6.224 33.229,6.224 h 15.824 c 12.838,16.521 28.613,30.442 46.485,40.897 23.132,13.537 49.771,21.271 78.104,21.271 27.705,0 53.786,-7.38 76.554,-20.361 49.996,-28.502 84.003,-83.997 84.003,-147.638 v -92.646 c 0,-0.025 -0.007,-0.058 -0.007,-0.09 0,-0.262 -0.015,-0.523 -0.035,-0.786 -0.013,-0.125 -0.013,-0.253 -0.028,-0.381 -0.026,-0.248 -0.069,-0.485 -0.111,-0.726 -0.023,-0.141 -0.042,-0.282 -0.071,-0.424 -0.043,-0.197 -0.1,-0.395 -0.157,-0.601 -0.04,-0.167 -0.083,-0.344 -0.139,-0.515 -0.052,-0.154 -0.115,-0.304 -0.171,-0.459 -0.067,-0.205 -0.141,-0.402 -0.224,-0.599 -0.059,-0.127 -0.122,-0.247 -0.177,-0.366 -0.107,-0.211 -0.207,-0.431 -0.318,-0.636 -0.063,-0.12 -0.135,-0.225 -0.204,-0.339 -0.12,-0.205 -0.241,-0.409 -0.375,-0.606 -0.091,-0.126 -0.192,-0.255 -0.283,-0.374 -0.125,-0.169 -0.245,-0.341 -0.38,-0.502 -0.128,-0.155 -0.261,-0.297 -0.393,-0.436 -0.123,-0.127 -0.229,-0.254 -0.349,-0.375 -0.161,-0.162 -0.332,-0.304 -0.499,-0.451 -0.106,-0.1 -0.213,-0.198 -0.325,-0.29 -0.177,-0.142 -0.361,-0.275 -0.544,-0.409 -0.118,-0.083 -0.233,-0.176 -0.352,-0.254 -0.169,-0.118 -0.354,-0.22 -0.529,-0.324 -0.147,-0.085 -0.287,-0.185 -0.444,-0.259 -0.156,-0.08 -0.31,-0.15 -0.466,-0.229 -0.19,-0.091 -0.381,-0.182 -0.58,-0.266 -0.124,-0.051 -0.258,-0.091 -0.385,-0.142 -0.233,-0.083 -0.467,-0.177 -0.707,-0.249 -0.12,-0.035 -0.24,-0.056 -0.36,-0.091 -0.253,-0.063 -0.508,-0.135 -0.768,-0.183 -0.035,-0.008 -0.065,-0.015 -0.093,-0.021 -11.634,-2.139 -27.558,-7.944 -44.587,-15.267 -45.569,-19.584 -99.081,-50.062 -99.819,-50.479 -4.045,-2.307 -9.075,-1.968 -12.778,0.86 -33.702,25.814 -69.449,41.527 -96.364,50.718 -25.552,8.72 -43.153,11.577 -43.507,11.634 -2.236,0.345 -4.21,1.317 -5.798,2.696 -5.043,1.249 -8.783,5.792 -8.783,11.216 v 92.645 c 0,30.045 7.585,58.267 20.841,82.692 h -0.698 c -12.035,0 -23.36,-3.098 -33.229,-8.537 v -191.975 -5.233 c 0,-86.678 77.766,-157.2 173.345,-157.2 95.587,0 173.348,70.521 173.348,157.2 v 3.418 267.841 0.072 c 0,6.383 5.177,11.563 11.569,11.563 6.392,0 11.571,-5.18 11.571,-11.563 V 283.621 280.32 c 0,-99.432 -88.146,-180.33 -196.488,-180.33 -108.344,0 -196.48,80.898 -196.48,180.33 v 5.36 171.175 c -7.994,-11.267 -12.713,-25.018 -12.713,-39.854 0,-1.757 -0.402,-3.408 -1.092,-4.896 v -124.16 c 0.125,-0.699 0.198,-1.403 0.198,-2.139 v -0.056 -58.739 c 11.704,-46.416 35.484,-85.167 68.834,-112.146 36.692,-29.66 83.404,-44.707 138.833,-44.707 54.804,0 106.048,16.592 144.286,46.717 36.354,28.635 58.84,67.447 63.376,109.331 v 57.307 c 0,0.022 0,0.035 0,0.057 0.008,0.494 0.051,0.98 0.105,1.451 v 132.633 c 0,6.329 5.082,11.478 11.409,11.564 l 0.417,0.013 c 0.373,0.008 0.748,0.016 1.12,0.016 45.01,0 81.633,-28.869 81.633,-64.35 v -35.183 c -10e-4,-32.785 -31.281,-59.906 -71.55,-63.835 z M 172.645,403.38 v -84.596 c 6.971,-1.36 20.608,-4.402 38.161,-10.151 16.247,-5.328 35.846,-12.968 56.63,-23.762 14.49,-7.527 29.559,-16.579 44.458,-27.442 9.701,5.408 28.854,15.908 50.88,26.941 18.28,9.166 38.534,18.704 57.005,26.034 9.96,3.95 19.378,7.246 27.709,9.503 v 83.475 c 0,79.876 -61.651,144.858 -137.423,144.858 -36.192,0 -69.16,-14.83 -93.724,-39.026 h 17.582 c 4.838,8.957 14.315,15.054 25.186,15.054 h 32.82 c 15.774,0 28.616,-12.832 28.616,-28.606 0,-15.776 -12.842,-28.607 -28.616,-28.607 H 259.11 c -12.409,0 -22.971,7.956 -26.92,19.019 h -34.881 c -15.534,-23.46 -24.664,-51.978 -24.664,-82.694 z m 413.919,-38.479 c 0,20.276 -20.889,37.181 -48.306,40.588 V 289.131 c 27.417,3.408 48.306,20.311 48.306,40.587 z M 28.039,329.719 c 0,-20.276 20.89,-37.179 48.306,-40.587 V 405.49 C 48.929,402.083 28.039,385.178 28.039,364.902 Z"
   id="path3752"
   inkscape:connector-curvature="0"
   style="display:inline;fill:#483737;fill-opacity:0.9254902;stroke-width:5.12410307" />
	</g>
</g>
<g
   id="Laag_2_1_"
   transform="translate(-150.79053,-400.03922)">
</g>
</svg>