<?xml version="1.0" encoding="UTF-8" standalone="no"?>
<!-- Generator: Adobe Illustrator 16.0.0, SVG Export Plug-In . SVG Version: 6.00 Build 0)  -->

<svg
   xmlns:dc="http://purl.org/dc/elements/1.1/"
   xmlns:cc="http://creativecommons.org/ns#"
   xmlns:rdf="http://www.w3.org/1999/02/22-rdf-syntax-ns#"
   xmlns:svg="http://www.w3.org/2000/svg"
   xmlns="http://www.w3.org/2000/svg"
   xmlns:sodipodi="http://sodipodi.sourceforge.net/DTD/sodipodi-0.dtd"
   xmlns:inkscape="http://www.inkscape.org/namespaces/inkscape"
   version="1.1"
   id="Capa_1"
   x="0px"
   y="0px"
   width="113.76617"
   height="108.752"
   viewBox="0 0 99.989795 95.582812"
   xml:space="preserve"
   sodipodi:docname="moneyNew.svg"
   inkscape:version="0.92.1 r15371"><metadata
   id="metadata4532"><rdf:RDF><cc:Work
       rdf:about=""><dc:format>image/svg+xml</dc:format><dc:type
         rdf:resource="http://purl.org/dc/dcmitype/StillImage" /><dc:title></dc:title></cc:Work></rdf:RDF></metadata><defs
   id="defs4530" /><sodipodi:namedview
   pagecolor="#ffffff"
   bordercolor="#666666"
   borderopacity="1"
   objecttolerance="10"
   gridtolerance="10"
   guidetolerance="10"
   inkscape:pageopacity="0"
   inkscape:pageshadow="2"
   inkscape:window-width="1366"
   inkscape:window-height="716"
   id="namedview4528"
   showgrid="false"
   inkscape:zoom="1.0410156"
   inkscape:cx="270.40901"
   inkscape:cy="-98.218059"
   inkscape:window-x="-8"
   inkscape:window-y="-8"
   inkscape:window-maximized="1"
   inkscape:current-layer="Capa_1" />
<g
   id="g4495"
   transform="matrix(0.22219949,0,0,0.22219949,0,-2.2033301)"
   style="stroke-width:4.50046158">
	<g
   id="g4493"
   style="stroke-width:4.50046158">
		<g
   id="g4491"
   style="stroke-width:4.50046158">
			<path
   d="m 230.238,310.184 c -17.647,8.016 -37.233,12.48 -57.843,12.48 -77.39,0 -140.353,-62.961 -140.353,-140.352 0,-77.391 62.963,-140.353 140.353,-140.353 77.391,0 140.353,62.962 140.353,140.353 0,33.969 -12.133,65.156 -32.29,89.461 6.941,7.625 15.153,16.225 22.209,23.332 C 328.898,264.85 344.79,225.401 344.79,182.312 344.79,87.252 267.455,9.916 172.395,9.916 77.336,9.917 0,87.253 0,182.313 c 0,95.06 77.336,172.395 172.395,172.395 28.525,0 55.451,-6.97 79.171,-19.286 -7.382,-8.695 -15.002,-17.695 -21.328,-25.238 z"
   id="path4485"
   inkscape:connector-curvature="0"
   style="fill:#03497e;stroke-width:4.50046158" />
			<path
   d="m 173.738,293.332 h 1.516 c 6.542,0 11.847,-5.304 11.847,-11.847 V 266.423 C 216.156,262.042 234.4,244.491 234.4,220 c 0.248,-33.294 -25.275,-44.322 -47.299,-51.208 v -48.635 c 8.123,1.216 16.069,3.803 21.829,7.255 5.538,3.32 12.715,1.593 16.137,-3.882 l 0.675,-1.08 c 1.681,-2.69 2.213,-5.941 1.477,-9.026 -0.735,-3.086 -2.678,-5.747 -5.392,-7.388 -9.534,-5.766 -22.202,-9.811 -34.726,-11.264 V 83.14 c 0,-6.542 -5.305,-11.847 -11.847,-11.847 h -1.516 c -6.542,0 -11.847,5.305 -11.847,11.847 v 12.29 c -26.93,4.309 -43.813,20.494 -43.813,42.961 0,31.516 24.806,42.847 43.813,49.08 v 53.748 c -11.588,-2.108 -22.773,-7.549 -30.264,-15.024 -4.628,-4.619 -12.125,-4.615 -16.746,0.011 l -1.024,1.023 c -2.245,2.246 -3.494,5.3 -3.468,8.474 0.026,3.175 1.326,6.207 3.607,8.414 12.409,12.012 30.076,20.217 47.896,22.578 v 14.791 c -0.001,6.542 5.304,11.846 11.846,11.846 z m 13.363,-97.903 c 15.055,5.494 22.203,11.432 22.09,24.396 0,0.034 0,0.068 0,0.102 0,13.23 -12.073,18.627 -22.09,20.825 z m -43.813,-57.037 c 0,-10.536 9.89,-15.19 18.603,-17.246 v 39.367 c -13.96,-5.82 -18.603,-11.888 -18.603,-22.121 z"
   id="path4487"
   inkscape:connector-curvature="0"
   style="fill:#03497e;stroke-width:4.50046158" />
			<path
   d="m 448.662,354.766 c -4.595,-24.766 -20.357,-47.664 -29.344,-59.11 -12.191,-15.531 -27.666,-21.769 -45.99,-18.539 -13.086,2.305 -27.307,9.429 -42.271,21.177 -10.573,8.304 -18.558,16.61 -22.088,20.479 -8.875,-7.645 -33.652,-33.177 -45.818,-47.573 -6.107,-7.23 -21.863,-22.605 -33.619,-11.991 -12.655,12.3 5.881,32.396 6.362,32.979 l 74.363,91.023 c -0.301,0.404 -0.638,0.752 -1.022,1.055 -7.131,5.601 -27.942,-4.689 -36.343,-10.246 -7.68,-5.074 -20.61,-5.035 -27.137,0.084 -2.613,2.055 -4.059,4.845 -4.076,7.854 -0.021,4.336 2.815,8.82 8.422,13.313 0.063,0.052 0.177,0.148 0.339,0.288 8.284,7.101 30.763,24.783 60.445,35.667 19.027,6.979 37.564,9.854 55.103,8.552 21.754,-1.621 42.024,-9.694 60.247,-24 19.546,-15.347 27.092,-35.875 22.427,-61.012 z"
   id="path4489"
   inkscape:connector-curvature="0"
   style="fill:#03497e;stroke-width:4.50046158" />
		</g>
	</g>
</g>
<g
   id="g4497"
   transform="translate(12.664166,-43.09272)">
</g>
<g
   id="g4499"
   transform="translate(12.664166,-43.09272)">
</g>
<g
   id="g4501"
   transform="translate(12.664166,-43.09272)">
</g>
<g
   id="g4503"
   transform="translate(12.664166,-43.09272)">
</g>
<g
   id="g4505"
   transform="translate(12.664166,-43.09272)">
</g>
<g
   id="g4507"
   transform="translate(12.664166,-43.09272)">
</g>
<g
   id="g4509"
   transform="translate(12.664166,-43.09272)">
</g>
<g
   id="g4511"
   transform="translate(12.664166,-43.09272)">
</g>
<g
   id="g4513"
   transform="translate(12.664166,-43.09272)">
</g>
<g
   id="g4515"
   transform="translate(12.664166,-43.09272)">
</g>
<g
   id="g4517"
   transform="translate(12.664166,-43.09272)">
</g>
<g
   id="g4519"
   transform="translate(12.664166,-43.09272)">
</g>
<g
   id="g4521"
   transform="translate(12.664166,-43.09272)">
</g>
<g
   id="g4523"
   transform="translate(12.664166,-43.09272)">
</g>
<g
   id="g4525"
   transform="translate(12.664166,-43.09272)">
</g>
</svg>